<?xml version="1.0" encoding="UTF-8"?>
<svg xmlns="http://www.w3.org/2000/svg" xml:space="preserve" version="1.1"
  viewBox="-384.82 966.66 7710.65 7710.65">
<defs>
  <style type="text/css">
   <![CDATA[
    .fil2 {fill:none}
    .fil0 {fill:#ED3237}
    .fil1 {fill:#ED3237;fill-rule:nonzero}
   ]]>
  </style>
 </defs>
<g id="symbol">
<g id="_2343023730528">
   <path class="fil0" d="M2477.81 8260.29l1505.36 0.91 5.13 -150.49c-259.62,-0.18 -518.69,2.01 -777.65,1.5l-573.31 0.72c-85.46,-0.48 -137.35,11.52 -179.43,-24.06 -85.43,-54.05 -50.2,-286.78 -49.85,-408.8l3.89 -1404.56c2.49,-620.32 3.45,-1240.71 7.94,-1861.04 5.1,-702.55 324.31,-632.51 469.92,-918.3 67.94,-133.33 65.23,-237.6 65.46,-404.32 0.37,-250.81 17.3,-961.97 4.39,-1171.23 -6.11,-98.88 -45.78,-63.96 -44.89,-198 1.81,-275.46 88.21,-139.01 289.5,-181.39l2.69 -150.39c-178.02,-16.15 -326.41,-17.81 -401.26,90.19 -71.56,103.27 -75.84,328.84 -20.13,432.28 40.99,76.13 13.68,847.81 13.09,1002.97 -2.02,527.88 31.28,446.58 -276.21,739.54 -194.26,185.1 -256.87,393.43 -257.95,758.65 -2.01,677.58 -7.65,1348.58 -10.96,2024.9l-8.15 1533.45c-0.29,156.83 95.07,278.06 232.42,287.47z"/>
   <path class="fil0" d="M3313.24 5117.57l1102.98 0.12c120.91,213.77 179.22,656.84 61.1,914.6 -67.84,148.04 -136.08,216.86 -246.17,304.18 -118.02,93.62 -219.86,128.6 -396.03,165.91l-3.78 1362.82 159.03 0.6 0.84 -1241.2c302.43,-67.39 569.18,-312.96 663.62,-613.44 99.51,-316.58 14.56,-814.16 -135.96,-1054.6l-1200.82 -0.97 -4.81 161.98z"/>
   <path class="fil0" d="M4346.08 5640.73l-797.31 1.32c-3.79,85.7 -11.74,446.33 11.35,507.1 120.8,317.86 812.23,14.79 785.96,-508.42z"/>
  </g>
</g>
</svg>
